# Blender v2.81 (sub 16) OBJ File: 'dotter logo.blend'
# www.blender.org
mtllib dotter logo.mtl
o Circle_Circle.004
v 2.626626 -0.000000 10.172157
v 2.542571 -0.000000 10.681278
v 6.293965 -0.000000 11.686458
v 6.502039 -0.000000 10.426161
v 2.609742 0.000000 9.656419
v 6.460244 0.000000 9.149487
v 2.492567 0.000000 9.153885
v 6.170185 0.000000 7.905498
v 2.279604 0.000000 8.683867
v 5.643009 0.000001 6.742000
v 1.979037 0.000000 8.264427
v 4.898975 0.000001 5.703704
v 1.602417 0.000000 7.911685
v 3.966676 0.000001 4.830513
v 1.164216 0.000000 7.639195
v 2.881940 0.000001 4.155984
v 0.681280 0.000000 7.457431
v 1.686463 0.000001 3.706038
v 0.000001 0.000000 9.999999
v -2.542569 0.000000 9.318722
v -2.626626 0.000000 9.827843
v -2.609742 -0.000000 10.343580
v -2.492568 -0.000000 10.846114
v -2.279605 -0.000000 11.316132
v -1.979038 -0.000000 11.735572
v -1.602419 -0.000000 12.088315
v -1.164219 -0.000000 12.360806
v -0.681278 -0.000000 12.542571
v 0.172159 0.000000 7.373375
v 0.426166 0.000001 3.497963
v -0.343579 0.000000 7.390259
v -0.850507 0.000001 3.539757
v -0.846112 0.000000 7.507433
v -2.094496 0.000001 3.829815
v -1.316131 0.000000 7.720396
v -3.257994 0.000001 4.356989
v -1.735571 0.000000 8.020962
v -4.296290 0.000001 5.101022
v -2.088313 0.000000 8.397582
v -5.169481 0.000001 6.033319
v -2.360803 0.000000 8.835782
v -5.844013 0.000000 7.118053
v -6.293962 0.000000 8.313540
v -0.172157 -0.000000 12.626626
v 0.343581 -0.000000 12.609743
v 0.846115 -0.000000 12.492568
v 1.316133 -0.000000 12.279606
v 1.735573 -0.000000 11.979039
v 2.088315 -0.000000 11.602419
v 2.360805 -0.000000 11.164218
v -6.502038 0.000000 9.573835
v -6.460244 -0.000000 10.850508
v -6.170187 -0.000000 12.094498
v -5.643012 -0.000001 13.257998
v -4.898980 -0.000001 14.296291
v -3.966682 -0.000001 15.169485
v -2.881947 -0.000001 15.844016
v -1.686460 -0.000001 16.293964
v -0.426163 -0.000001 16.502041
v 0.850511 -0.000001 16.460245
v 2.094500 -0.000001 16.170187
v 3.257999 -0.000001 15.643012
v 4.296294 -0.000001 14.898979
v 5.169485 -0.000001 13.966681
v 5.844016 -0.000000 12.881945
vt 0.000000 0.000000
vt 0.000000 0.000000
vt 0.000000 0.000000
vt 0.000000 0.000000
vt 0.000000 0.000000
vt 0.000000 0.000000
vt 0.000000 0.000000
vt 0.000000 0.000000
vt 0.000000 0.000000
vt 0.000000 0.000000
vt 0.000000 0.000000
vt 0.000000 0.000000
vt 0.000000 0.000000
vt 0.000000 0.000000
vt 0.000000 0.000000
vt 0.000000 0.000000
vt 0.000000 0.000000
vt 0.000000 0.000000
vt 0.000000 0.000000
vt 0.000000 0.000000
vt 0.000000 0.000000
vt 0.000000 0.000000
vt 0.000000 0.000000
vt 0.000000 0.000000
vt 0.000000 0.000000
vt 0.000000 0.000000
vt 0.000000 0.000000
vt 0.000000 0.000000
vt 0.000000 0.000000
vt 0.000000 0.000000
vt 0.000000 0.000000
vt 0.000000 0.000000
vt 0.000000 0.000000
vt 0.000000 0.000000
vt 0.000000 0.000000
vt 0.000000 0.000000
vt 0.000000 0.000000
vt 0.000000 0.000000
vt 0.000000 0.000000
vt 0.000000 0.000000
vt 0.000000 0.000000
vt 0.000000 0.000000
vt 0.000000 0.000000
vt 0.000000 0.000000
vt 0.000000 0.000000
vt 0.000000 0.000000
vt 0.000000 0.000000
vt 0.000000 0.000000
vt 0.000000 0.000000
vt 0.000000 0.000000
vt 0.000000 0.000000
vt 0.000000 0.000000
vt 0.000000 0.000000
vt 0.000000 0.000000
vt 0.000000 0.000000
vt 0.000000 0.000000
vt 0.000000 0.000000
vt 0.000000 0.000000
vt 0.000000 0.000000
vt 0.000000 0.000000
vt 0.000000 0.000000
vt 0.000000 0.000000
vt 0.000000 0.000000
vt 0.000000 0.000000
vt 0.000000 0.000000
vn 0.0000 1.0000 0.0000
usemtl Part4Mtl
s 1
f 1/1/1 2/2/1 3/3/1 4/4/1
f 5/5/1 1/1/1 4/4/1 6/6/1
f 7/7/1 5/5/1 6/6/1 8/8/1
f 9/9/1 7/7/1 8/8/1 10/10/1
f 11/11/1 9/9/1 10/10/1 12/12/1
f 13/13/1 11/11/1 12/12/1 14/14/1
f 15/15/1 13/13/1 14/14/1 16/16/1
f 17/17/1 15/15/1 16/16/1 18/18/1
f 19/19/1 20/20/1 21/21/1 22/22/1 23/23/1 24/24/1 25/25/1 26/26/1 27/27/1 28/28/1
usemtl Part7Mtl
f 29/29/1 17/17/1 18/18/1 30/30/1
f 31/31/1 29/29/1 30/30/1 32/32/1
f 33/33/1 31/31/1 32/32/1 34/34/1
f 35/35/1 33/33/1 34/34/1 36/36/1
f 37/37/1 35/35/1 36/36/1 38/38/1
f 39/39/1 37/37/1 38/38/1 40/40/1
f 41/41/1 39/39/1 40/40/1 42/42/1
f 20/20/1 41/41/1 42/42/1 43/43/1
f 2/2/1 19/19/1 28/28/1 44/44/1 45/45/1 46/46/1 47/47/1 48/48/1 49/49/1 50/50/1
usemtl Part1Mtl
f 21/21/1 20/20/1 43/43/1 51/51/1
f 22/22/1 21/21/1 51/51/1 52/52/1
f 23/23/1 22/22/1 52/52/1 53/53/1
f 24/24/1 23/23/1 53/53/1 54/54/1
f 25/25/1 24/24/1 54/54/1 55/55/1
f 26/26/1 25/25/1 55/55/1 56/56/1
f 27/27/1 26/26/1 56/56/1 57/57/1
f 28/28/1 27/27/1 57/57/1 58/58/1
f 17/17/1 19/19/1 2/2/1 1/1/1 5/5/1 7/7/1 9/9/1 11/11/1 13/13/1 15/15/1
usemtl Part5Mtl
f 29/29/1 31/31/1 33/33/1 35/35/1 37/37/1 39/39/1 41/41/1 20/20/1 19/19/1 17/17/1
f 44/44/1 28/28/1 58/58/1 59/59/1
f 45/45/1 44/44/1 59/59/1 60/60/1
f 46/46/1 45/45/1 60/60/1 61/61/1
f 47/47/1 46/46/1 61/61/1 62/62/1
f 48/48/1 47/47/1 62/62/1 63/63/1
f 49/49/1 48/48/1 63/63/1 64/64/1
f 50/50/1 49/49/1 64/64/1 65/65/1
f 2/2/1 50/50/1 65/65/1 3/3/1
o Circle
v 13.743695 0.000000 1.961570
v 14.118881 0.000000 1.847759
v 14.464655 0.000000 1.662939
v 14.767728 0.000000 1.414213
v 15.016454 0.000000 1.111139
v 15.201273 0.000000 0.765365
v 15.315084 0.000000 0.390179
v 15.353513 0.000000 -0.000002
v 15.315084 0.000000 -0.390183
v 15.201272 0.000000 -0.765369
v 15.016451 0.000000 -1.111143
v 14.767725 0.000000 -1.414215
v 14.464652 0.000000 -1.662941
v 14.118877 0.000000 -1.847760
v 13.743691 0.000000 -1.961571
v 0.000000 0.000000 -2.000000
v 0.000000 0.000000 2.000000
v -13.743695 0.000000 1.961570
v -14.118881 0.000000 1.847759
v -14.464655 0.000000 1.662939
v -14.767728 0.000000 1.414213
v -15.016454 0.000000 1.111139
v -15.201273 0.000000 0.765365
v -15.315084 0.000000 0.390179
v -15.353513 0.000000 -0.000002
v -15.315084 0.000000 -0.390183
v -15.201272 0.000000 -0.765369
v -15.016451 0.000000 -1.111143
v -14.767725 0.000000 -1.414215
v -14.464652 0.000000 -1.662941
v -14.118877 0.000000 -1.847760
v -13.743691 0.000000 -1.961571
vt 0.000000 0.000000
vt 0.000000 0.000000
vt 0.000000 0.000000
vt 0.000000 0.000000
vt 0.000000 0.000000
vt 0.000000 0.000000
vt 0.000000 0.000000
vt 0.000000 0.000000
vt 0.000000 0.000000
vt 0.000000 0.000000
vt 0.000000 0.000000
vt 0.000000 0.000000
vt 0.000000 0.000000
vt 0.000000 0.000000
vt 0.000000 0.000000
vt 0.000000 0.000000
vt 0.000000 0.000000
vt 0.000000 0.000000
vt 0.000000 0.000000
vt 0.000000 0.000000
vt 0.000000 0.000000
vt 0.000000 0.000000
vt 0.000000 0.000000
vt 0.000000 0.000000
vt 0.000000 0.000000
vt 0.000000 0.000000
vt 0.000000 0.000000
vt 0.000000 0.000000
vt 0.000000 0.000000
vt 0.000000 0.000000
vt 0.000000 0.000000
vt 0.000000 0.000000
vn 0.0000 1.0000 0.0000
usemtl Material.001
s off
f 81/66/2 82/67/2 66/68/2 67/69/2 68/70/2 69/71/2 70/72/2 71/73/2 72/74/2 73/75/2 74/76/2 75/77/2 76/78/2 77/79/2 78/80/2 79/81/2 80/82/2
f 81/66/2 97/83/2 96/84/2 95/85/2 94/86/2 93/87/2 92/88/2 91/89/2 90/90/2 89/91/2 88/92/2 87/93/2 86/94/2 85/95/2 84/96/2 83/97/2 82/67/2
o Text
v 9.642500 0.000000 -9.387000
v 9.642500 0.000000 -4.613000
v 10.328499 0.000000 -4.613000
v 10.328499 0.000000 -6.685000
v 10.615499 0.000000 -6.685000
v 10.701921 0.000000 -6.682229
v 10.787128 0.000000 -6.672166
v 10.872530 0.000000 -6.652187
v 10.959536 0.000000 -6.619667
v 11.049555 0.000000 -6.571979
v 11.143998 0.000000 -6.506500
v 11.244275 0.000000 -6.420604
v 11.351795 0.000000 -6.311666
v 11.467968 0.000000 -6.177063
v 11.594203 0.000000 -6.014167
v 11.731911 0.000000 -5.820354
v 11.882500 0.000000 -5.593000
v 12.512499 0.000000 -4.613000
v 13.331500 0.000000 -4.613000
v 13.253455 0.000000 -4.720892
v 13.183139 0.000000 -4.818139
v 13.119531 0.000000 -4.906343
v 13.061611 0.000000 -4.987111
v 13.008357 0.000000 -5.062045
v 12.958749 0.000000 -5.132750
v 12.911766 0.000000 -5.200830
v 12.866387 0.000000 -5.267889
v 12.821592 0.000000 -5.335531
v 12.776360 0.000000 -5.405361
v 12.729669 0.000000 -5.478983
v 12.680500 0.000000 -5.558000
v 12.591387 0.000000 -5.703542
v 12.505435 0.000000 -5.842667
v 12.421718 0.000000 -5.975375
v 12.339314 0.000000 -6.101666
v 12.257298 0.000000 -6.221541
v 12.174748 0.000000 -6.335000
v 12.090740 0.000000 -6.442041
v 12.004351 0.000000 -6.542666
v 11.914656 0.000000 -6.636875
v 11.820730 0.000000 -6.724667
v 11.721653 0.000000 -6.806041
v 11.616499 0.000000 -6.881000
v 11.739546 0.000000 -6.936084
v 11.853041 0.000000 -6.999676
v 11.956765 0.000000 -7.071531
v 12.050499 0.000000 -7.151407
v 12.134026 0.000000 -7.239061
v 12.207125 0.000000 -7.334250
v 12.269577 0.000000 -7.436730
v 12.321166 0.000000 -7.546259
v 12.361670 0.000000 -7.662594
v 12.390874 0.000000 -7.785491
v 12.408556 0.000000 -7.914707
v 12.414499 0.000000 -8.050000
v 12.402096 0.000000 -8.249825
v 12.365435 0.000000 -8.435843
v 12.305344 0.000000 -8.607375
v 12.222648 0.000000 -8.763741
v 12.118175 0.000000 -8.904260
v 11.992749 0.000000 -9.028250
v 11.847199 0.000000 -9.135033
v 11.682351 0.000000 -9.223927
v 11.499031 0.000000 -9.294250
v 11.298064 0.000000 -9.345325
v 11.080277 0.000000 -9.376468
v 10.846500 0.000000 -9.387000
v 10.328499 0.000000 -8.799000
v 10.769500 0.000000 -8.799000
v 10.927518 0.000000 -8.793369
v 11.069398 0.000000 -8.776704
v 11.195625 0.000000 -8.749344
v 11.306684 0.000000 -8.711630
v 11.403065 0.000000 -8.663901
v 11.485250 0.000000 -8.606500
v 11.553726 0.000000 -8.539765
v 11.608981 0.000000 -8.464037
v 11.651500 0.000000 -8.379656
v 11.681768 0.000000 -8.286963
v 11.700273 0.000000 -8.186297
v 11.707500 0.000000 -8.078000
v 11.704550 0.000000 -7.978894
v 11.691490 0.000000 -7.881903
v 11.667250 0.000000 -7.788266
v 11.630759 0.000000 -7.699222
v 11.580950 0.000000 -7.616012
v 11.516750 0.000000 -7.539875
v 11.437094 0.000000 -7.472050
v 11.340908 0.000000 -7.413778
v 11.227125 0.000000 -7.366297
v 11.094677 0.000000 -7.330847
v 10.942491 0.000000 -7.308668
v 10.769500 0.000000 -7.301000
v 10.328499 0.000000 -7.301000
v 8.837499 0.000000 -9.387000
v 6.128499 0.000000 -9.387000
v 6.128499 0.000000 -4.613000
v 8.900499 0.000000 -4.613000
v 8.900499 0.000000 -5.229000
v 6.814499 0.000000 -5.229000
v 6.814499 0.000000 -6.713000
v 8.767499 0.000000 -6.713000
v 8.767499 0.000000 -7.329000
v 6.814499 0.000000 -7.329000
v 6.814499 0.000000 -8.771000
v 8.837499 0.000000 -8.771000
v 5.484499 0.000000 -9.387000
v 1.494499 0.000000 -9.387000
v 1.494499 0.000000 -8.771000
v 3.146499 0.000000 -8.771000
v 3.146499 0.000000 -4.613000
v 3.832499 0.000000 -4.613000
v 3.832499 0.000000 -8.771000
v 5.484499 0.000000 -8.771000
v 1.256499 0.000000 -9.387000
v -2.733501 0.000000 -9.387000
v -2.733501 0.000000 -8.771000
v -1.081501 0.000000 -8.771000
v -1.081501 0.000000 -4.613000
v -0.395501 0.000000 -4.613000
v -0.395501 0.000000 -8.771000
v 1.256499 0.000000 -8.771000
v -8.298502 0.000000 -7.000000
v -8.278178 0.000000 -6.679754
v -8.218163 0.000000 -6.368865
v -8.119892 0.000000 -6.070859
v -7.984798 0.000000 -5.789259
v -7.814315 0.000000 -5.527590
v -7.609877 0.000000 -5.289375
v -7.372918 0.000000 -5.078139
v -7.104872 0.000000 -4.897408
v -6.807174 0.000000 -4.750703
v -6.481256 0.000000 -4.641551
v -6.128554 0.000000 -4.573475
v -5.750501 0.000000 -4.550000
v -5.359996 0.000000 -4.573608
v -4.997710 0.000000 -4.642037
v -4.664736 0.000000 -4.751687
v -4.362168 0.000000 -4.898963
v -4.091100 0.000000 -5.080266
v -3.852627 0.000000 -5.292000
v -3.647840 0.000000 -5.530567
v -3.477835 0.000000 -5.792370
v -3.343704 0.000000 -6.073812
v -3.246543 0.000000 -6.371296
v -3.187444 0.000000 -6.681224
v -3.167501 0.000000 -7.000000
v -3.187971 0.000000 -7.327599
v -3.248423 0.000000 -7.643287
v -3.347423 0.000000 -7.943906
v -3.483538 0.000000 -8.226296
v -3.655334 0.000000 -8.487297
v -3.861376 0.000000 -8.723750
v -4.100231 0.000000 -8.932494
v -4.370464 0.000000 -9.110371
v -4.670642 0.000000 -9.254219
v -4.999330 0.000000 -9.360880
v -5.355094 0.000000 -9.427194
v -5.736502 0.000000 -9.450001
v -6.111888 0.000000 -9.427059
v -6.463432 0.000000 -9.360394
v -6.789454 0.000000 -9.253235
v -7.088279 0.000000 -9.108815
v -7.358228 0.000000 -8.930367
v -7.597626 0.000000 -8.721125
v -7.804795 0.000000 -8.484320
v -7.978057 0.000000 -8.223185
v -8.115736 0.000000 -7.940953
v -8.216155 0.000000 -7.640856
v -8.277636 0.000000 -7.326128
v -7.591501 0.000000 -7.000000
v -7.575322 0.000000 -7.256383
v -7.527983 0.000000 -7.499398
v -7.451283 0.000000 -7.727344
v -7.347020 0.000000 -7.938519
v -7.216993 0.000000 -8.131222
v -7.063001 0.000000 -8.303750
v -6.886843 0.000000 -8.454404
v -6.690316 0.000000 -8.581482
v -6.475220 0.000000 -8.683281
v -6.243353 0.000000 -8.758102
v -5.996514 0.000000 -8.804242
v -5.736502 0.000000 -8.820000
v -5.474880 0.000000 -8.804242
v -5.226700 0.000000 -8.758101
v -4.993736 0.000000 -8.683281
v -4.777761 0.000000 -8.581482
v -4.580550 0.000000 -8.454404
v -4.403877 0.000000 -8.303750
v -4.249516 0.000000 -8.131221
v -4.119242 0.000000 -7.938519
v -4.014830 0.000000 -7.727344
v -3.938053 0.000000 -7.499398
v -3.890685 0.000000 -7.256383
v -3.874501 0.000000 -7.000000
v -3.890685 0.000000 -6.745087
v -3.938052 0.000000 -6.503032
v -4.014830 0.000000 -6.275609
v -4.119242 0.000000 -6.064592
v -4.249516 0.000000 -5.871757
v -4.403876 0.000000 -5.698875
v -4.580549 0.000000 -5.547723
v -4.777761 0.000000 -5.420074
v -4.993735 0.000000 -5.317703
v -5.226700 0.000000 -5.242384
v -5.474880 0.000000 -5.195892
v -5.736502 0.000000 -5.180000
v -5.996514 0.000000 -5.195891
v -6.243353 0.000000 -5.242384
v -6.475220 0.000000 -5.317703
v -6.690316 0.000000 -5.420074
v -6.886842 0.000000 -5.547723
v -7.063001 0.000000 -5.698875
v -7.216993 0.000000 -5.871756
v -7.347020 0.000000 -6.064592
v -7.451283 0.000000 -6.275609
v -7.527983 0.000000 -6.503032
v -7.575322 0.000000 -6.745087
v -13.331502 0.000000 -4.613000
v -11.469501 0.000000 -4.613000
v -11.088783 0.000000 -4.636572
v -10.734922 0.000000 -4.704745
v -10.409111 0.000000 -4.813703
v -10.112538 0.000000 -4.959630
v -9.846397 0.000000 -5.138709
v -9.611876 0.000000 -5.347125
v -9.410169 0.000000 -5.581062
v -9.242464 0.000000 -5.836703
v -9.109955 0.000000 -6.110234
v -9.013830 0.000000 -6.397838
v -8.955282 0.000000 -6.695698
v -8.935501 0.000000 -7.000000
v -8.951811 0.000000 -7.283715
v -9.001224 0.000000 -7.568134
v -9.084470 0.000000 -7.848422
v -9.202278 0.000000 -8.119740
v -9.355379 0.000000 -8.377254
v -9.544500 0.000000 -8.616125
v -9.770372 0.000000 -8.831516
v -10.033723 0.000000 -9.018593
v -10.335281 0.000000 -9.172516
v -10.675778 0.000000 -9.288449
v -11.055942 0.000000 -9.361556
v -11.476501 0.000000 -9.387000
v -13.331502 0.000000 -9.387000
v -12.645501 0.000000 -8.771000
v -11.588501 0.000000 -8.771000
v -11.269349 0.000000 -8.754468
v -10.980117 0.000000 -8.706412
v -10.720392 0.000000 -8.629141
v -10.489761 0.000000 -8.524963
v -10.287810 0.000000 -8.396189
v -10.114127 0.000000 -8.245125
v -9.968298 0.000000 -8.074083
v -9.849910 0.000000 -7.885370
v -9.758550 0.000000 -7.681297
v -9.693804 0.000000 -7.464171
v -9.655258 0.000000 -7.236303
v -9.642501 0.000000 -7.000000
v -9.650425 0.000000 -6.841633
v -9.676140 0.000000 -6.664648
v -9.722563 0.000000 -6.475219
v -9.792611 0.000000 -6.279518
v -9.889202 0.000000 -6.083721
v -10.015250 0.000000 -5.894000
v -10.173674 0.000000 -5.716529
v -10.367390 0.000000 -5.557481
v -10.599313 0.000000 -5.423031
v -10.872362 0.000000 -5.319352
v -11.189451 0.000000 -5.252616
v -11.553501 0.000000 -5.229000
v -12.645501 0.000000 -5.229000
vn 0.0000 1.0000 0.0000
vn 0.0000 0.0000 1.0000
usemtl Material.001
s off
f 99//3 165//3 98//3
f 165//3 164//3 98//3
f 165//3 163//3 164//3
f 165//3 162//3 163//3
f 165//3 161//3 162//3
f 165//3 160//3 161//3
f 165//3 159//3 160//3
f 165//3 158//3 159//3
f 165//3 157//3 158//3
f 165//3 166//3 157//3
f 166//3 156//3 157//3
f 99//3 191//3 165//3
f 167//3 156//3 166//3
f 168//3 156//3 167//3
f 169//3 156//3 168//3
f 169//3 155//3 156//3
f 170//3 155//3 169//3
f 171//3 155//3 170//3
f 172//3 155//3 171//3
f 172//3 154//3 155//3
f 173//3 154//3 172//3
f 174//3 154//3 173//3
f 175//3 154//3 174//3
f 175//3 153//3 154//3
f 176//3 153//3 175//3
f 177//3 153//3 176//3
f 177//3 152//3 153//3
f 178//3 152//3 177//3
f 179//3 152//3 178//3
f 179//3 151//3 152//3
f 180//3 151//3 179//3
f 180//3 150//3 151//3
f 181//3 150//3 180//3
f 182//3 150//3 181//3
f 182//3 149//3 150//3
f 183//3 149//3 182//3
f 183//3 148//3 149//3
f 184//3 148//3 183//3
f 184//3 147//3 148//3
f 185//3 147//3 184//3
f 186//3 147//3 185//3
f 186//3 146//3 147//3
f 187//3 146//3 186//3
f 188//3 146//3 187//3
f 188//3 145//3 146//3
f 189//3 145//3 188//3
f 190//3 145//3 189//3
f 99//3 101//3 191//3
f 101//3 190//3 191//3
f 101//3 145//3 190//3
f 101//3 144//3 145//3
f 101//3 143//3 144//3
f 101//3 142//3 143//3
f 101//3 141//3 142//3
f 101//3 140//3 141//3
f 101//3 139//3 140//3
f 101//3 138//3 139//3
f 101//3 102//3 138//3
f 102//3 103//3 138//3
f 103//3 137//3 138//3
f 99//3 100//3 101//3
f 104//3 137//3 103//3
f 105//3 137//3 104//3
f 106//3 137//3 105//3
f 106//3 136//3 137//3
f 107//3 136//3 106//3
f 108//3 136//3 107//3
f 108//3 135//3 136//3
f 109//3 135//3 108//3
f 109//3 134//3 135//3
f 110//3 134//3 109//3
f 110//3 133//3 134//3
f 111//3 133//3 110//3
f 111//3 132//3 133//3
f 112//3 132//3 111//3
f 112//3 131//3 132//3
f 113//3 131//3 112//3
f 113//3 130//3 131//3
f 113//3 129//3 130//3
f 114//3 129//3 113//3
f 114//3 128//3 129//3
f 115//3 128//3 114//3
f 115//3 127//3 128//3
f 115//3 126//3 127//3
f 115//3 125//3 126//3
f 115//3 124//3 125//3
f 115//3 123//3 124//3
f 115//3 122//3 123//3
f 115//3 121//3 122//3
f 115//3 120//3 121//3
f 115//3 119//3 120//3
f 115//3 118//3 119//3
f 115//3 117//3 118//3
f 115//3 116//3 117//3
f 194//3 202//3 193//3
f 202//3 192//3 193//3
f 202//3 203//3 192//3
f 194//3 201//3 202//3
f 194//3 198//3 201//3
f 198//3 200//3 201//3
f 198//3 199//3 200//3
f 194//3 197//3 198//3
f 194//3 196//3 197//3
f 194//3 195//3 196//3
f 206//3 204//3 205//3
f 206//3 211//3 204//3
f 207//4 211//4 206//4
f 208//3 210//3 207//3
f 210//4 211//4 207//4
f 208//3 209//3 210//3
f 214//3 212//3 213//3
f 214//3 219//3 212//3
f 215//4 219//4 214//4
f 216//3 218//3 215//3
f 218//4 219//4 215//4
f 216//3 217//3 218//3
f 257//3 255//3 256//3
f 257//3 254//3 255//3
f 258//3 254//3 257//3
f 258//3 253//3 254//3
f 259//3 253//3 258//3
f 259//3 252//3 253//3
f 260//3 252//3 259//3
f 260//3 251//3 252//3
f 261//3 251//3 260//3
f 261//3 250//3 251//3
f 262//3 280//3 261//3
f 280//3 250//3 261//3
f 262//3 279//3 280//3
f 281//3 250//3 280//3
f 262//3 278//3 279//3
f 282//3 250//3 281//3
f 262//3 277//3 278//3
f 283//3 250//3 282//3
f 283//3 249//3 250//3
f 263//3 277//3 262//3
f 263//3 276//3 277//3
f 284//3 249//3 283//3
f 263//3 275//3 276//3
f 285//3 249//3 284//3
f 285//3 248//3 249//3
f 264//3 275//3 263//3
f 264//3 274//3 275//3
f 286//3 248//3 285//3
f 264//3 273//3 274//3
f 287//3 248//3 286//3
f 287//3 247//3 248//3
f 265//3 273//3 264//3
f 265//3 272//3 273//3
f 288//3 247//3 287//3
f 288//3 246//3 247//3
f 266//3 272//3 265//3
f 266//3 271//3 272//3
f 289//3 246//3 288//3
f 290//3 246//3 289//3
f 266//3 270//3 271//3
f 290//3 245//3 246//3
f 267//3 270//3 266//3
f 291//3 245//3 290//3
f 267//3 269//3 270//3
f 291//3 244//3 245//3
f 220//3 269//3 267//3
f 292//3 244//3 291//3
f 220//3 268//3 269//3
f 221//3 268//3 220//3
f 221//3 315//3 268//3
f 293//3 244//3 292//3
f 293//3 243//3 244//3
f 294//3 243//3 293//3
f 221//3 314//3 315//3
f 294//3 242//3 243//3
f 222//3 314//3 221//3
f 295//3 242//3 294//3
f 222//3 313//3 314//3
f 295//3 241//3 242//3
f 223//3 313//3 222//3
f 296//3 241//3 295//3
f 223//3 312//3 313//3
f 296//3 240//3 241//3
f 224//3 312//3 223//3
f 297//3 240//3 296//3
f 224//3 311//3 312//3
f 298//3 240//3 297//3
f 224//3 310//3 311//3
f 298//3 239//3 240//3
f 225//3 310//3 224//3
f 299//3 239//3 298//3
f 225//3 309//3 310//3
f 300//3 239//3 299//3
f 225//3 308//3 309//3
f 300//3 238//3 239//3
f 226//3 308//3 225//3
f 301//3 238//3 300//3
f 226//3 307//3 308//3
f 302//3 238//3 301//3
f 226//3 306//3 307//3
f 302//3 237//3 238//3
f 227//3 306//3 226//3
f 303//3 237//3 302//3
f 227//3 305//3 306//3
f 304//3 237//3 303//3
f 227//3 304//3 305//3
f 227//3 237//3 304//3
f 227//3 236//3 237//3
f 228//3 236//3 227//3
f 228//3 235//3 236//3
f 229//3 235//3 228//3
f 229//3 234//3 235//3
f 230//3 234//3 229//3
f 230//3 233//3 234//3
f 231//3 233//3 230//3
f 231//3 232//3 233//3
f 316//3 343//3 342//3
f 343//3 341//3 342//3
f 343//3 340//3 341//3
f 343//3 339//3 340//3
f 343//3 338//3 339//3
f 343//3 337//3 338//3
f 343//3 336//3 337//3
f 343//3 344//3 336//3
f 344//3 345//3 336//3
f 345//3 335//3 336//3
f 316//3 369//3 343//3
f 346//3 335//3 345//3
f 347//3 335//3 346//3
f 348//3 335//3 347//3
f 348//3 334//3 335//3
f 349//3 334//3 348//3
f 350//3 334//3 349//3
f 350//3 333//3 334//3
f 351//3 333//3 350//3
f 351//3 332//3 333//3
f 352//3 332//3 351//3
f 353//3 332//3 352//3
f 353//3 331//3 332//3
f 354//3 331//3 353//3
f 354//3 330//3 331//3
f 355//3 330//3 354//3
f 355//3 329//3 330//3
f 356//3 329//3 355//3
f 357//3 329//3 356//3
f 357//3 328//3 329//3
f 358//3 328//3 357//3
f 358//3 327//3 328//3
f 359//3 327//3 358//3
f 360//3 327//3 359//3
f 360//3 326//3 327//3
f 361//3 326//3 360//3
f 361//3 325//3 326//3
f 362//3 325//3 361//3
f 363//3 325//3 362//3
f 363//3 324//3 325//3
f 364//3 324//3 363//3
f 364//3 323//3 324//3
f 365//3 323//3 364//3
f 366//3 323//3 365//3
f 366//3 322//3 323//3
f 367//3 322//3 366//3
f 368//3 322//3 367//3
f 316//3 368//3 369//3
f 316//3 322//3 368//3
f 316//3 321//3 322//3
f 316//3 320//3 321//3
f 316//3 319//3 320//3
f 316//3 318//3 319//3
f 316//3 317//3 318//3
